<svg width="271" height="352" viewBox="0 0 271 352" fill="none" xmlns="http://www.w3.org/2000/svg">
<path d="M184.57 217.125C184.57 210.484 183.529 204.625 181.445 199.547C179.492 194.339 175.977 189.651 170.898 185.484C165.951 181.318 159.049 177.346 150.195 173.57C141.471 169.794 130.404 165.953 116.992 162.047C102.93 157.88 90.2344 153.258 78.9062 148.18C67.5781 142.971 57.8776 137.047 49.8047 130.406C41.7318 123.766 35.5469 116.148 31.25 107.555C26.9531 98.9609 24.8047 89.1302 24.8047 78.0625C24.8047 66.9948 27.0833 56.7734 31.6406 47.3984C36.1979 38.0234 42.7083 29.8854 51.1719 22.9844C59.7656 15.9531 69.987 10.4844 81.8359 6.57812C93.6849 2.67188 106.901 0.71875 121.484 0.71875C142.839 0.71875 160.938 4.82031 175.781 13.0234C190.755 21.0964 202.148 31.7083 209.961 44.8594C217.773 57.8802 221.68 71.8125 221.68 86.6562H184.18C184.18 75.9792 181.901 66.5391 177.344 58.3359C172.786 50.0026 165.885 43.4922 156.641 38.8047C147.396 33.987 135.677 31.5781 121.484 31.5781C108.073 31.5781 97.0052 33.5964 88.2812 37.6328C79.5573 41.6693 73.0469 47.138 68.75 54.0391C64.5833 60.9401 62.5 68.8177 62.5 77.6719C62.5 83.6615 63.737 89.1302 66.2109 94.0781C68.8151 98.8958 72.7865 103.388 78.125 107.555C83.5938 111.721 90.4948 115.562 98.8281 119.078C107.292 122.594 117.383 125.979 129.102 129.234C145.247 133.792 159.18 138.87 170.898 144.469C182.617 150.068 192.253 156.383 199.805 163.414C207.487 170.315 213.151 178.193 216.797 187.047C220.573 195.771 222.461 205.667 222.461 216.734C222.461 228.323 220.117 238.805 215.43 248.18C210.742 257.555 204.036 265.562 195.312 272.203C186.589 278.844 176.107 283.987 163.867 287.633C151.758 291.148 138.216 292.906 123.242 292.906C110.091 292.906 97.1354 291.083 84.375 287.438C71.7448 283.792 60.2214 278.323 49.8047 271.031C39.5182 263.74 31.25 254.755 25 244.078C18.8802 233.271 15.8203 220.771 15.8203 206.578H53.3203C53.3203 216.344 55.2083 224.742 58.9844 231.773C62.7604 238.674 67.9036 244.404 74.4141 248.961C81.0547 253.518 88.5417 256.904 96.875 259.117C105.339 261.201 114.128 262.242 123.242 262.242C136.393 262.242 147.526 260.419 156.641 256.773C165.755 253.128 172.656 247.919 177.344 241.148C182.161 234.378 184.57 226.37 184.57 217.125Z" fill="white"/>
<path d="M270.469 321.336V352H128.281V321.336H270.469ZM135.703 67.625V352H98.0078V67.625H135.703Z" fill="white"/>
</svg>
